<?xml version="1.0" encoding="UTF-8" standalone="no"?>
<!DOCTYPE svg PUBLIC "-//W3C//DTD SVG 1.1//EN"
 "http://www.w3.org/Graphics/SVG/1.1/DTD/svg11.dtd">
<!-- Generated by graphviz version 2.40.1 (20161225.0304)
 -->
<!-- Title: %0 Pages: 1 -->
<svg width="98pt" height="44pt"
 viewBox="0.00 0.00 97.91 44.00" xmlns="http://www.w3.org/2000/svg" xmlns:xlink="http://www.w3.org/1999/xlink">
<g id="graph0" class="graph" transform="scale(1 1) rotate(0) translate(4 40)">
<title>%0</title>
<polygon fill="#ffffff" stroke="transparent" points="-4,4 -4,-40 93.9088,-40 93.9088,4 -4,4"/>
<!-- /home/george/repos/verilog&#45;fifos/fifo_async/rtl/fifo_async.v -->
<g id="node1" class="node">
<title>/home/george/repos/verilog&#45;fifos/fifo_async/rtl/fifo_async.v</title>
<polygon fill="#d3d3d3" stroke="#069302" points="89.8632,-36 .0456,-36 .0456,-32 -3.9544,-32 -3.9544,-28 .0456,-28 .0456,-8 -3.9544,-8 -3.9544,-4 .0456,-4 .0456,0 89.8632,0 89.8632,-36"/>
<polyline fill="none" stroke="#069302" points=".0456,-32 4.0456,-32 4.0456,-28 .0456,-28 "/>
<polyline fill="none" stroke="#069302" points=".0456,-8 4.0456,-8 4.0456,-4 .0456,-4 "/>
<text text-anchor="middle" x="44.9544" y="-13.8" font-family="Helvetica,sans-Serif" font-size="14.00" fill="#000000">fifo_async.v</text>
</g>
</g>
</svg>
